# xmcd
#
# Track frame offsets:
# 150
# 14107
# 31040
# 44811
# 61826
# 78263
# 90925
# 105863
# 124788
# 140835
# 154255
# 168239
# 186835
# 200821
# 214090
# 232998
# 247778
# 261701
# 274935
# 291552
#
# Disc length: 4115 seconds
#
#
# Revision: 0
# Processed by: cddbd v1.5.1PL0 Copyright (c) Steve Scherf et al.
# Submitted via: FreeRIP 2.60 
#
DISCID=25101114
DTITLE=Bezerra da Silva - Grandes Sucessos
DYEAR=2003
DGENRE=pagode
TTITLE0=A semente
TTITLE1=Maladragem da um tempo
TTITLE2=Defunto caguete
TTITLE3=Bicho feroz
TTITLE4=Fofoqueiro é a imagem do cão
TTITLE5=Candidado caô caô
TTITLE6=O rei do côco
TTITLE7=Meu bom juiz
TTITLE8=É esse ai que é o homem
TTITLE9=Vitimas da sociedade
TTITLE10=Na hora da dura
TTITLE11=Violência gera violência
TTITLE12=É o bicho é o bicho
TTITLE13=Quando o morcego doar sanque
TTITLE14=Se não avisar o bicho pega
TTITLE15=Eu sou favela
TTITLE16=Sua cabeça não passa na porta
TTITLE17=Safado é safado mesmo
TTITLE18=Fui obrigado a chorar
TTITLE19=Canudo de ouro
EXTD=by aXel
EXTT0=
EXTT1=
EXTT2=
EXTT3=
EXTT4=
EXTT5=
EXTT6=
EXTT7=
EXTT8=
EXTT9=
EXTT10=
EXTT11=
EXTT12=
EXTT13=
EXTT14=
EXTT15=
EXTT16=
EXTT17=
EXTT18=
EXTT19=
PLAYORDER=
